<svg width="61" height="60" viewBox="0 0 61 60" fill="none" xmlns="http://www.w3.org/2000/svg">
<g clip-path="url(#clip0_5_876)">
<path d="M57.1194 21.2612C56.3276 18.8096 56.6651 15.1296 54.6073 12.2881C52.5333 9.42431 48.9262 8.61033 46.8894 7.12064C44.874 5.64666 42.999 2.43912 39.6089 1.33287C36.3144 0.257791 32.9455 1.71666 30.3333 1.71666C27.7216 1.71666 24.3529 0.257439 21.0578 1.33275C17.6683 2.43877 15.7918 5.64701 13.7777 7.12029C11.7431 8.60822 8.13323 9.42443 6.05959 12.2878C4.00354 15.1269 4.33764 18.8154 3.54733 21.2611C2.79522 23.5888 0.333344 26.3824 0.333344 30.0002C0.333344 33.6203 2.79241 36.4031 3.54733 38.7392C4.33905 41.1908 4.00155 44.8708 6.05936 47.7123C8.13323 50.5762 11.7403 51.3901 13.7773 52.8799C15.7924 54.3537 17.6677 57.5614 21.0578 58.6676C24.3501 59.7419 27.7243 58.2838 30.3333 58.2838C32.9388 58.2838 36.3208 59.7404 39.6089 58.6677C42.9985 57.5617 44.8739 54.3541 46.889 52.8801C48.9236 51.3922 52.5335 50.576 54.6071 47.7126C56.6633 44.8734 56.3289 41.1853 57.1194 38.7394C57.8715 36.4115 60.3333 33.6179 60.3333 30.0002C60.3333 26.3804 57.8749 23.5984 57.1194 21.2612V21.2612ZM52.6591 37.2979C51.7362 40.1544 51.978 43.3511 50.8108 44.9629C49.6279 46.5962 46.5202 47.3422 44.1222 49.0963C41.7505 50.8308 40.0881 53.5803 38.1548 54.2111C36.3257 54.8081 33.3449 53.596 30.3335 53.596C27.2999 53.596 24.3499 54.8107 22.512 54.2111C20.5789 53.5803 18.9189 50.8326 16.5446 49.0962C14.1608 47.3528 11.0354 46.5914 9.85588 44.9627C8.69245 43.3563 8.92506 40.1374 8.00784 37.2981C7.10877 34.5162 5.02084 32.1074 5.02084 30.0002C5.02084 27.891 7.1069 25.4905 8.0076 22.7025C8.93045 19.8461 8.6887 16.6492 9.85588 15.0375C11.0381 13.4053 14.1481 12.6568 16.5446 10.9042C18.9239 9.16404 20.5757 6.42103 22.5118 5.78928C24.3393 5.19303 27.3298 6.40439 30.3332 6.40439C33.3722 6.40439 36.3149 5.18892 38.1547 5.78928C40.0876 6.41998 41.7489 9.16873 44.1222 10.9043C46.5057 12.6477 49.6313 13.409 50.8108 15.0376C51.9745 16.6444 51.7406 19.86 52.6588 22.7022V22.7024C53.5579 25.4843 55.6458 27.8931 55.6458 30.0002C55.6458 32.1095 53.5598 34.5099 52.6591 37.2979V37.2979ZM41.1314 22.4774C42.0467 23.3927 42.0467 24.8767 41.1314 25.7919L29.4002 37.5231C28.4848 38.4384 27.0008 38.4383 26.0855 37.5231L19.5355 30.973C18.6201 30.0576 18.62 28.5737 19.5353 27.6585C20.4507 26.7432 21.9349 26.7431 22.8499 27.6585L27.7428 32.5513L37.8166 22.4775C38.7319 21.5621 40.216 21.5621 41.1314 22.4774V22.4774Z" fill="#242424"/>
</g>
<defs>
<clipPath id="clip0_5_876">
<rect width="60" height="60" fill="white" transform="translate(0.333344)"/>
</clipPath>
</defs>
</svg>
