<svg width="20" height="20" viewBox="0 0 20 20" fill="none" xmlns="http://www.w3.org/2000/svg">
<path d="M1.66666 15.8334C1.66666 17.25 2.74999 18.3334 4.16666 18.3334H15.8333C17.25 18.3334 18.3333 17.25 18.3333 15.8334V9.16669H1.66666V15.8334ZM15.8333 3.33335H14.1667V2.50002C14.1667 2.00002 13.8333 1.66669 13.3333 1.66669C12.8333 1.66669 12.5 2.00002 12.5 2.50002V3.33335H7.49999V2.50002C7.49999 2.00002 7.16666 1.66669 6.66666 1.66669C6.16666 1.66669 5.83332 2.00002 5.83332 2.50002V3.33335H4.16666C2.74999 3.33335 1.66666 4.41669 1.66666 5.83335V7.50002H18.3333V5.83335C18.3333 4.41669 17.25 3.33335 15.8333 3.33335Z" fill="#9F9F9F"/>
</svg>
