<svg width="20" height="20" viewBox="0 0 20 20" fill="none" xmlns="http://www.w3.org/2000/svg">
<path d="M1.66666 15.8333C1.66666 17.25 2.74999 18.3333 4.16666 18.3333H15.8333C17.25 18.3333 18.3333 17.25 18.3333 15.8333V9.16667H1.66666V15.8333ZM15.8333 3.33333H14.1667V2.5C14.1667 2 13.8333 1.66667 13.3333 1.66667C12.8333 1.66667 12.5 2 12.5 2.5V3.33333H7.49999V2.5C7.49999 2 7.16666 1.66667 6.66666 1.66667C6.16666 1.66667 5.83332 2 5.83332 2.5V3.33333H4.16666C2.74999 3.33333 1.66666 4.41667 1.66666 5.83333V7.5H18.3333V5.83333C18.3333 4.41667 17.25 3.33333 15.8333 3.33333Z" fill="#9F9F9F"/>
</svg>
